<?xml version="1.0" encoding="utf-8"?>
<!-- Generator: Adobe Illustrator 28.3.0, SVG Export Plug-In . SVG Version: 6.00 Build 0)  -->
<svg version="1.1" id="Layer_1" xmlns="http://www.w3.org/2000/svg" xmlns:xlink="http://www.w3.org/1999/xlink" x="0px" y="0px"
	 viewBox="0 0 338 139" style="enable-background:new 0 0 338 139;" xml:space="preserve">
<style type="text/css">
	.st0{fill:#FFFFFF;}
	.st1{fill:url(#SVGID_1_);}
	.st2{fill:url(#SVGID_00000168099059218158417910000017351337999911196045_);}
</style>
<g>
	<path class="st0" d="M128,55.7L117.3,36h7.1l7.5,14.8C132,50.7,128,55.7,128,55.7z M120.4,64.3l-2.2-5.4c1.7-0.3,3.2-0.8,4.5-1.6
		s2.4-1.7,3.5-2.9c1-1.2,2-2.7,2.8-4.5l6.7-14h6.8l-8.2,16.4c-1,2-2,3.7-3,5.1c-1,1.4-2.1,2.6-3.2,3.5s-2.3,1.7-3.6,2.2
		S121.9,64.1,120.4,64.3L120.4,64.3z"/>
	<path class="st0" d="M145.1,63.8V43.7h5.8v7.4h8.5v-7.4h5.8v20.1h-5.8v-8h-8.5v8H145.1z"/>
	<path class="st0" d="M170.8,63.8V43.7h5.6v11.8l9.4-11.8h5.2v20.1h-5.6v-12l-9.4,12H170.8L170.8,63.8z"/>
	<path class="st0" d="M196.6,63.8V43.7h10.2c2.4,0,4.2,0.4,5.6,1.3c1.4,0.8,2,2.2,2,3.9c0,0.9-0.2,1.7-0.7,2.3
		c-0.5,0.6-1.1,1.2-1.9,1.6s-1.6,0.7-2.6,0.8l-0.1-1.3c1.9,0.2,3.4,0.8,4.5,1.7c1.1,1,1.6,2.2,1.6,3.7c0,1.3-0.3,2.3-0.9,3.2
		c-0.6,0.9-1.6,1.6-2.8,2.1c-1.2,0.5-2.7,0.7-4.4,0.7L196.6,63.8L196.6,63.8z M202.2,59.8h4.2c1.1,0,1.9-0.2,2.4-0.5
		c0.6-0.4,0.9-0.9,0.9-1.6s-0.3-1.2-0.8-1.5s-1.4-0.5-2.4-0.5h-4.8v-3.8h4.3c1,0,1.8-0.2,2.3-0.5c0.5-0.3,0.8-0.8,0.8-1.5
		s-0.3-1.2-0.8-1.5c-0.6-0.3-1.3-0.5-2.3-0.5h-3.7V59.8L202.2,59.8z"/>
	<path class="st0" d="M229.1,64.4c-2.2,0-4.1-0.4-5.8-1.3c-1.7-0.9-2.9-2.1-3.9-3.7c-0.9-1.6-1.4-3.5-1.4-5.6c0-1.5,0.3-3,0.8-4.3
		s1.3-2.4,2.3-3.4c1-1,2.1-1.7,3.4-2.2c1.3-0.5,2.8-0.8,4.3-0.8c1.7,0,3.3,0.3,4.6,0.9c1.4,0.6,2.5,1.5,3.4,2.5s1.5,2.4,1.9,3.8
		c0.4,1.5,0.4,3.1,0.1,4.8h-15.4c0,0.9,0.2,1.7,0.7,2.4c0.5,0.7,1.2,1.2,2.1,1.6s1.9,0.6,3.1,0.6s2.3-0.2,3.3-0.5s2.1-0.8,3-1.5
		l1.9,4c-0.6,0.5-1.4,0.9-2.4,1.3c-0.9,0.4-2,0.7-3,0.9C231.1,64.3,230.1,64.4,229.1,64.4L229.1,64.4z M223.8,51.2h9.5
		c0-1.2-0.4-2.1-1.2-2.8c-0.8-0.7-1.9-1-3.2-1s-2.5,0.3-3.4,1C224.5,49.1,223.9,50,223.8,51.2z"/>
	<path class="st0" d="M243.1,72.1V43.7h5.1v2.5c0.8-0.9,1.8-1.7,2.9-2.2c1.2-0.6,2.6-0.8,4.2-0.8c1.9,0,3.7,0.5,5.2,1.3
		s2.7,2.1,3.6,3.8c0.9,1.6,1.3,3.5,1.3,5.5c0,1.5-0.2,2.9-0.8,4.2s-1.2,2.4-2.1,3.4s-2,1.7-3.2,2.3c-1.2,0.5-2.6,0.8-4.1,0.8
		c-1.3,0-2.5-0.2-3.6-0.7s-2-1-2.8-1.8v10.3L243.1,72.1L243.1,72.1z M254.2,59.4c1,0,2-0.2,2.8-0.7c0.8-0.5,1.5-1.1,1.9-1.9
		s0.7-1.8,0.7-3s-0.2-2.2-0.7-3c-0.5-0.8-1.1-1.5-1.9-1.9s-1.7-0.7-2.8-0.7s-1.9,0.2-2.7,0.7c-0.8,0.5-1.4,1.1-1.9,1.9
		c-0.5,0.8-0.7,1.8-0.7,3s0.2,2.2,0.7,3c0.5,0.8,1.1,1.5,1.9,1.9S253.2,59.4,254.2,59.4L254.2,59.4z"/>
	<path class="st0" d="M278.7,64.4c-2.1,0-4-0.5-5.7-1.4s-3-2.2-4-3.8c-1-1.6-1.4-3.4-1.4-5.5c0-1.5,0.3-2.9,0.9-4.2s1.4-2.4,2.4-3.4
		c1-1,2.2-1.7,3.6-2.2c1.4-0.5,2.9-0.8,4.5-0.8c1.5,0,2.8,0.2,4.1,0.6c1.2,0.4,2.4,1,3.4,1.8l-2.6,4.3c-0.6-0.6-1.3-1-2.1-1.3
		s-1.6-0.4-2.5-0.4c-1.2,0-2.2,0.2-3.1,0.7s-1.5,1.1-2,1.9s-0.7,1.8-0.7,3c0,1.8,0.5,3.1,1.6,4.1s2.5,1.5,4.3,1.5
		c1,0,1.9-0.2,2.7-0.5s1.6-0.8,2.3-1.5l2.5,4.4c-1.1,0.8-2.4,1.5-3.8,2C281.6,64.1,280.2,64.4,278.7,64.4L278.7,64.4z"/>
	<path class="st0" d="M298.7,64.4c-1.9,0-3.6-0.5-5.1-1.3c-1.5-0.9-2.7-2.1-3.6-3.8c-0.9-1.6-1.3-3.5-1.3-5.5c0-1.6,0.2-3,0.8-4.3
		c0.5-1.3,1.2-2.4,2.1-3.4c0.9-1,2-1.7,3.2-2.2c1.2-0.5,2.5-0.8,4-0.8c1.9,0,3.5,0.4,4.8,1.2s2.3,1.9,2.9,3.2l-0.8,1.2v-5.1h5v20.1
		h-5v-5.1l0.8,1.2c-0.6,1.3-1.6,2.4-2.9,3.2S300.6,64.4,298.7,64.4L298.7,64.4z M299.6,59.4c1,0,1.9-0.2,2.7-0.7
		c0.8-0.5,1.4-1.1,1.9-1.9s0.7-1.8,0.7-3s-0.2-2.2-0.7-3c-0.5-0.8-1.1-1.5-1.9-1.9c-0.8-0.5-1.7-0.7-2.7-0.7s-1.9,0.2-2.7,0.7
		c-0.8,0.5-1.4,1.1-1.9,1.9c-0.5,0.8-0.7,1.8-0.7,3s0.2,2.2,0.7,3c0.5,0.8,1.1,1.5,1.9,1.9C297.8,59.1,298.7,59.4,299.6,59.4z"/>
	<path class="st0" d="M316.1,64.2l-1.9-5.2c1.4-0.3,2.4-0.9,3-1.5c0.6-0.7,1-1.6,1.2-2.8c0.2-1.2,0.2-2.7,0.2-4.5v-6.5h17.2v20.1
		H330V48.4h-6.1v1.8c0,2.1-0.1,3.9-0.4,5.5s-0.6,3-1.2,4.1s-1.4,2.1-2.4,2.8S317.6,63.9,316.1,64.2L316.1,64.2z"/>
	<path class="st0" d="M119.4,100.5V72.6h10.8c2,0,3.9,0.3,5.4,1.1c1.6,0.7,2.8,1.7,3.7,3.1c0.9,1.3,1.4,3,1.4,4.8s-0.4,3.6-1.2,4.9
		s-2.1,2.3-3.6,3c-1.6,0.7-3.5,1-5.8,1h-4.8v9.9L119.4,100.5L119.4,100.5z M125.3,85.6h4.7c1.5,0,2.7-0.3,3.6-0.9s1.3-1.6,1.3-3
		s-0.4-2.4-1.3-3s-2-1-3.5-1h-4.7L125.3,85.6L125.3,85.6z"/>
	<path class="st0" d="M154.1,101.1c-2.2,0-4.1-0.4-5.8-1.3s-2.9-2.1-3.9-3.7c-0.9-1.6-1.4-3.4-1.4-5.6c0-1.6,0.3-3,0.8-4.3
		s1.3-2.4,2.3-3.4c1-0.9,2.1-1.7,3.4-2.2c1.3-0.5,2.8-0.8,4.3-0.8c1.7,0,3.3,0.3,4.6,0.9c1.4,0.6,2.5,1.5,3.4,2.6
		c0.9,1.1,1.5,2.4,1.9,3.8s0.4,3.1,0.1,4.8h-15.4c0,0.9,0.2,1.7,0.7,2.4c0.5,0.7,1.2,1.2,2.1,1.6s1.9,0.6,3.1,0.6s2.3-0.2,3.3-0.5
		s2.1-0.8,3-1.4l1.9,4c-0.6,0.5-1.4,0.9-2.4,1.3c-0.9,0.4-2,0.7-3,0.9C156,101,155,101.1,154.1,101.1L154.1,101.1z M148.7,87.9h9.5
		c0-1.2-0.4-2.1-1.2-2.8c-0.8-0.7-1.9-1-3.2-1s-2.5,0.3-3.4,1C149.4,85.8,148.9,86.7,148.7,87.9z"/>
	<path class="st0" d="M168,100.5V80.4h5.1l8.4,12.6l-2.5,0l7.9-12.7h5.1v20.1h-5.1l0.1-13.6l1.1,0.5l-6.3,9.6h-3.5l-6.7-9.6l1.1-0.4
		l0.1,13.6L168,100.5L168,100.5z"/>
	<path class="st0" d="M207.1,101.1c-2.1,0-4-0.5-5.7-1.4s-3-2.2-3.9-3.8s-1.4-3.4-1.4-5.4c0-1.5,0.3-2.9,0.9-4.2s1.4-2.4,2.4-3.4
		s2.2-1.7,3.6-2.2s2.9-0.8,4.5-0.8c1.5,0,2.8,0.2,4.1,0.6c1.2,0.4,2.4,1,3.4,1.8l-2.6,4.3c-0.6-0.6-1.3-1-2.1-1.3s-1.6-0.4-2.5-0.4
		c-1.2,0-2.2,0.2-3.1,0.7s-1.5,1.1-2,1.9c-0.5,0.8-0.7,1.8-0.7,3c0,1.8,0.5,3.1,1.6,4.1s2.5,1.5,4.3,1.5c1,0,1.9-0.2,2.7-0.5
		c0.9-0.4,1.6-0.8,2.3-1.5l2.4,4.4c-1.1,0.8-2.4,1.5-3.8,1.9S208.5,101.1,207.1,101.1L207.1,101.1z"/>
	<path class="st0" d="M222.9,100.5V85h-6.1v-4.7h17.9V85h-6v15.4H222.9L222.9,100.5z"/>
	<path class="st0" d="M238.5,108.8V80.4h5.1v2.5c0.8-0.9,1.8-1.7,2.9-2.2c1.2-0.6,2.6-0.8,4.2-0.8c1.9,0,3.7,0.4,5.2,1.3
		c1.5,0.9,2.7,2.1,3.6,3.8c0.9,1.6,1.3,3.4,1.3,5.6c0,1.5-0.2,2.9-0.8,4.2s-1.2,2.4-2.1,3.4s-2,1.7-3.2,2.3
		c-1.2,0.5-2.6,0.8-4.1,0.8c-1.3,0-2.5-0.2-3.6-0.7s-2-1.1-2.8-1.8v10.3L238.5,108.8L238.5,108.8z M249.6,96c1,0,2-0.2,2.8-0.7
		c0.8-0.5,1.4-1.1,1.9-1.9c0.5-0.8,0.7-1.8,0.7-3s-0.2-2.2-0.7-3c-0.5-0.8-1.1-1.5-1.9-1.9s-1.7-0.7-2.8-0.7s-1.9,0.2-2.7,0.7
		c-0.8,0.5-1.4,1.1-1.9,1.9c-0.5,0.8-0.7,1.8-0.7,3s0.2,2.2,0.7,3s1.1,1.5,1.9,1.9S248.6,96,249.6,96z"/>
	<path class="st0" d="M274.1,101.1c-2.2,0-4.1-0.5-5.8-1.4s-3-2.3-3.9-3.9c-1-1.6-1.4-3.4-1.4-5.3c0-1.4,0.3-2.8,0.8-4.1
		c0.5-1.3,1.3-2.4,2.3-3.4c1-1,2.2-1.8,3.5-2.3c1.4-0.6,2.8-0.8,4.5-0.8c2.2,0,4.1,0.5,5.7,1.4c1.7,1,3,2.3,3.9,3.9s1.4,3.4,1.4,5.3
		c0,1.4-0.3,2.8-0.8,4c-0.5,1.3-1.3,2.4-2.3,3.4c-1,1-2.2,1.8-3.5,2.3S275.7,101.1,274.1,101.1z M274.1,96c1,0,1.9-0.2,2.7-0.7
		s1.4-1.1,1.9-1.9c0.5-0.8,0.7-1.8,0.7-3s-0.2-2.2-0.7-3c-0.5-0.8-1.1-1.5-1.9-1.9s-1.7-0.7-2.8-0.7s-2,0.2-2.8,0.7
		s-1.5,1.1-1.9,1.9c-0.5,0.8-0.7,1.8-0.7,3s0.2,2.2,0.7,3c0.5,0.8,1.1,1.5,1.9,1.9S273.1,96,274.1,96L274.1,96z"/>
	<path class="st0" d="M289.2,100.5V80.4h5.5v11.8l9.4-11.8h5.2v20.1h-5.6v-12l-9.4,12H289.2L289.2,100.5z M299.2,77.4
		c-1.6,0-3-0.3-4.2-0.9c-1.2-0.6-2.1-1.5-2.8-2.6s-1-2.4-0.9-3.8h4.7c0,1.1,0.2,1.9,0.8,2.6s1.4,1,2.4,1s1.8-0.3,2.3-1
		c0.6-0.6,0.8-1.5,0.8-2.6h4.8c0,1.4-0.3,2.7-0.9,3.8s-1.6,2-2.8,2.6S300.8,77.4,299.2,77.4L299.2,77.4z"/>
</g>
<g>
	
		<linearGradient id="SVGID_1_" gradientUnits="userSpaceOnUse" x1="-0.11" y1="80.365" x2="96.98" y2="80.365" gradientTransform="matrix(1 0 0 -1 0 140)">
		<stop  offset="0" style="stop-color:#8C6239"/>
		<stop  offset="1" style="stop-color:#754C24"/>
	</linearGradient>
	<polygon class="st1" points="97,49 97,69 92.2,69 92.2,69 92.2,69 88.2,69 88.2,52.6 48.4,12.9 8.7,52.6 8.7,109.9 17.5,109.9 
		17.5,118.8 -0.1,118.8 -0.1,49 48.4,0.5 	"/>
	
		<linearGradient id="SVGID_00000147925242926003429600000002249720275882734240_" gradientUnits="userSpaceOnUse" x1="17.54" y1="57.415" x2="88.15" y2="57.415" gradientTransform="matrix(1 0 0 -1 0 140)">
		<stop  offset="0" style="stop-color:#39B54A"/>
		<stop  offset="1" style="stop-color:#009245"/>
	</linearGradient>
	<polygon style="fill:url(#SVGID_00000147925242926003429600000002249720275882734240_);" points="88.2,60.2 88.2,69 79.8,69 
		52.8,42 26.4,68.5 26.4,126.7 52.8,126.7 52.8,135.5 17.5,135.5 17.5,64.9 52.8,29.6 83.4,60.2 	"/>
</g>
<g>
	<rect x="36.1" y="72.9" class="st0" width="14" height="14"/>
	<rect x="55.6" y="72.9" class="st0" width="14" height="14"/>
	<polygon class="st0" points="55.6,106.4 50,106.4 50,92.4 36.1,92.4 36.1,106.4 69.6,106.4 69.6,92.4 55.6,92.4 	"/>
</g>
</svg>
