<?xml version="1.0" encoding="UTF-8"?>
<svg id="Layer_1" data-name="Layer 1" xmlns="http://www.w3.org/2000/svg" xmlns:xlink="http://www.w3.org/1999/xlink" viewBox="0 0 338 139">
  <defs>
    <style>
      .cls-1 {
        fill: url(#New_Gradient_Swatch_1);
      }

      .cls-1, .cls-2, .cls-3, .cls-4 {
        stroke-width: 0px;
      }

      .cls-2 {
        fill: #4d4d4d;
      }

      .cls-3 {
        fill: url(#linear-gradient);
      }

      .cls-4 {
        fill: #000;
      }
    </style>
    <linearGradient id="linear-gradient" x1="-.11" y1="59.64" x2="96.98" y2="59.64" gradientUnits="userSpaceOnUse">
      <stop offset="0" stop-color="#8c6239"/>
      <stop offset="1" stop-color="#754c24"/>
    </linearGradient>
    <linearGradient id="New_Gradient_Swatch_1" data-name="New Gradient Swatch 1" x1="17.54" y1="82.58" x2="88.15" y2="82.58" gradientUnits="userSpaceOnUse">
      <stop offset="0" stop-color="#39b54a"/>
      <stop offset="1" stop-color="#009245"/>
    </linearGradient>
  </defs>
  <g>
    <path class="cls-4" d="M128,55.72l-10.68-19.76h7.14l7.52,14.75-3.98,5.01ZM120.38,64.31l-2.15-5.37c1.7-.33,3.19-.85,4.48-1.56s2.45-1.67,3.46-2.87c1.01-1.21,1.96-2.72,2.83-4.55l6.7-14h6.82l-8.25,16.38c-.98,1.98-1.98,3.67-3,5.08-1.02,1.41-2.09,2.59-3.2,3.53-1.11.94-2.3,1.68-3.57,2.21-1.27.53-2.64.92-4.13,1.15Z"/>
    <path class="cls-4" d="M145.12,63.79v-20.08h5.81v7.4h8.47v-7.4h5.81v20.08h-5.81v-8.03h-8.47v8.03h-5.81Z"/>
    <path class="cls-4" d="M170.84,63.79v-20.08h5.55v11.85l9.4-11.85h5.17v20.08h-5.57v-12.01l-9.42,12.01h-5.13Z"/>
    <path class="cls-4" d="M196.61,63.79v-20.08h10.22c2.36,0,4.21.43,5.57,1.28,1.35.85,2.03,2.15,2.03,3.89,0,.9-.23,1.67-.69,2.32-.46.64-1.07,1.16-1.85,1.56-.78.4-1.65.68-2.63.84l-.08-1.29c1.9.2,3.39.77,4.47,1.72,1.09.95,1.63,2.18,1.63,3.69,0,1.26-.32,2.34-.95,3.25-.64.91-1.56,1.61-2.78,2.1-1.22.49-2.7.74-4.43.74h-10.5ZM202.16,59.78h4.19c1.05,0,1.85-.18,2.42-.55.56-.36.85-.9.85-1.6s-.28-1.19-.83-1.55-1.36-.54-2.44-.54h-4.77v-3.82h4.27c.99,0,1.76-.15,2.31-.47.54-.31.82-.81.82-1.5s-.28-1.2-.82-1.54c-.55-.34-1.32-.51-2.3-.51h-3.7v12.07Z"/>
    <path class="cls-4" d="M229.12,64.39c-2.19,0-4.11-.44-5.77-1.33-1.66-.89-2.95-2.13-3.88-3.72-.93-1.59-1.39-3.45-1.39-5.59,0-1.55.27-2.98.81-4.27s1.29-2.42,2.27-3.37c.97-.95,2.12-1.68,3.44-2.21,1.32-.52,2.77-.79,4.34-.79,1.74,0,3.28.31,4.62.92,1.35.61,2.46,1.46,3.35,2.55.89,1.09,1.51,2.38,1.86,3.85.35,1.47.38,3.07.09,4.79h-15.39c0,.93.24,1.74.73,2.43.48.69,1.17,1.23,2.05,1.62.88.39,1.91.59,3.09.59s2.28-.16,3.34-.48c1.06-.32,2.06-.8,3-1.45l1.93,3.98c-.64.49-1.43.92-2.39,1.3-.95.38-1.97.67-3.03.87-1.07.21-2.09.31-3.07.31ZM223.81,51.23h9.48c-.04-1.18-.45-2.11-1.24-2.8-.79-.69-1.87-1.03-3.25-1.03s-2.52.34-3.43,1.03c-.91.69-1.43,1.62-1.56,2.8Z"/>
    <path class="cls-4" d="M243.08,72.14v-28.43h5.05v2.47c.77-.92,1.75-1.65,2.93-2.22,1.19-.56,2.59-.85,4.23-.85,1.93,0,3.66.45,5.17,1.34,1.51.89,2.7,2.14,3.56,3.75.86,1.6,1.29,3.45,1.29,5.55,0,1.5-.25,2.89-.75,4.18-.5,1.29-1.2,2.41-2.1,3.38s-1.97,1.72-3.2,2.27c-1.23.54-2.59.82-4.08.82-1.31,0-2.5-.22-3.55-.66-1.05-.44-1.98-1.05-2.77-1.85v10.26h-5.79ZM254.21,59.36c1.03,0,1.96-.23,2.77-.69.82-.46,1.45-1.1,1.91-1.94.46-.84.69-1.83.69-2.98s-.23-2.15-.7-2.98c-.46-.84-1.1-1.48-1.91-1.94-.81-.46-1.73-.69-2.76-.69s-1.94.23-2.74.69c-.81.46-1.44,1.1-1.91,1.94-.46.83-.7,1.83-.7,2.98s.23,2.15.69,2.98c.46.83,1.09,1.48,1.9,1.94.81.46,1.73.69,2.76.69Z"/>
    <path class="cls-4" d="M278.73,64.39c-2.12,0-4.02-.46-5.69-1.39-1.67-.93-2.99-2.19-3.95-3.8-.96-1.6-1.44-3.42-1.44-5.45,0-1.52.28-2.93.85-4.22s1.37-2.42,2.4-3.38c1.03-.96,2.23-1.71,3.61-2.24,1.38-.53,2.87-.8,4.47-.8,1.47,0,2.83.2,4.09.6,1.25.4,2.39.99,3.41,1.79l-2.62,4.33c-.64-.57-1.34-.99-2.12-1.27-.78-.28-1.59-.42-2.46-.42-1.21,0-2.24.22-3.11.66-.87.44-1.54,1.07-2.01,1.91-.47.84-.71,1.84-.71,3.02,0,1.76.52,3.14,1.56,4.13,1.04.99,2.46,1.49,4.26,1.49.97,0,1.88-.18,2.73-.54s1.61-.85,2.28-1.49l2.45,4.39c-1.1.82-2.35,1.47-3.76,1.95-1.41.48-2.82.72-4.25.72Z"/>
    <path class="cls-4" d="M298.71,64.39c-1.92,0-3.64-.45-5.15-1.34-1.51-.89-2.7-2.14-3.57-3.75-.87-1.6-1.3-3.45-1.3-5.55,0-1.58.25-3.02.75-4.31.5-1.3,1.2-2.42,2.1-3.37.9-.95,1.97-1.68,3.19-2.19,1.23-.51,2.55-.77,3.99-.77,1.91,0,3.52.41,4.84,1.23,1.32.82,2.28,1.9,2.89,3.22l-.82,1.25v-5.11h5.05v20.08h-5.05v-5.11l.82,1.25c-.61,1.33-1.57,2.4-2.89,3.22-1.32.82-2.93,1.23-4.84,1.23ZM299.64,59.36c1.01,0,1.91-.23,2.7-.69.8-.46,1.42-1.1,1.88-1.94.46-.84.69-1.83.69-2.98s-.23-2.15-.69-2.98c-.46-.84-1.08-1.48-1.88-1.94-.79-.46-1.7-.69-2.7-.69s-1.89.23-2.68.69c-.79.46-1.42,1.1-1.88,1.94-.46.83-.69,1.83-.69,2.98s.23,2.15.69,2.98c.46.83,1.08,1.48,1.88,1.94.8.46,1.69.69,2.68.69Z"/>
    <path class="cls-4" d="M316.08,64.23l-1.93-5.15c1.36-.34,2.36-.86,2.98-1.55.62-.69,1.02-1.63,1.18-2.81.17-1.19.25-2.7.25-4.54v-6.46h17.24v20.08h-5.81v-15.43h-6.12v1.81c0,2.07-.12,3.9-.35,5.49s-.63,2.96-1.2,4.11c-.57,1.15-1.36,2.08-2.37,2.81-1.01.73-2.3,1.28-3.88,1.65Z"/>
    <path class="cls-4" d="M119.41,100.46v-27.84h10.8c2.04,0,3.85.35,5.43,1.06,1.58.71,2.82,1.74,3.72,3.08.9,1.35,1.35,2.96,1.35,4.84s-.42,3.55-1.25,4.88-2.05,2.35-3.63,3.04c-1.58.7-3.5,1.04-5.76,1.04h-4.77v9.88h-5.89ZM125.3,85.63h4.67c1.52,0,2.71-.31,3.57-.93.86-.62,1.28-1.61,1.28-2.96s-.44-2.38-1.31-3.04-2.04-.99-3.5-.99h-4.71v7.93Z"/>
    <path class="cls-4" d="M154.05,101.06c-2.19,0-4.11-.44-5.77-1.33-1.66-.89-2.95-2.13-3.88-3.72-.93-1.59-1.39-3.45-1.39-5.59,0-1.55.27-2.98.81-4.27s1.29-2.42,2.27-3.37c.97-.95,2.12-1.68,3.44-2.21,1.32-.52,2.77-.79,4.34-.79,1.74,0,3.28.31,4.62.92,1.35.61,2.46,1.46,3.35,2.55.89,1.09,1.51,2.38,1.86,3.85.35,1.47.38,3.07.09,4.79h-15.39c0,.93.24,1.74.73,2.43.48.69,1.17,1.23,2.05,1.62.88.39,1.91.59,3.09.59s2.28-.16,3.34-.48c1.06-.32,2.06-.8,3-1.45l1.93,3.98c-.64.49-1.43.92-2.39,1.3-.95.38-1.97.67-3.03.87-1.07.21-2.09.31-3.07.31ZM148.74,87.89h9.48c-.04-1.18-.45-2.11-1.24-2.8-.79-.69-1.87-1.03-3.25-1.03s-2.52.34-3.43,1.03c-.91.69-1.43,1.62-1.56,2.8Z"/>
    <path class="cls-4" d="M168,100.46v-20.08h5.07l8.43,12.61-2.49.04,7.95-12.65h5.07v20.08h-5.13l.06-13.62,1.13.46-6.32,9.56h-3.5l-6.68-9.58,1.09-.44.1,13.62h-4.79Z"/>
    <path class="cls-4" d="M207.11,101.06c-2.12,0-4.02-.46-5.69-1.39-1.67-.93-2.99-2.19-3.95-3.8s-1.44-3.42-1.44-5.45c0-1.52.28-2.93.85-4.22s1.37-2.42,2.4-3.38c1.03-.96,2.23-1.71,3.61-2.24,1.38-.53,2.87-.8,4.47-.8,1.47,0,2.83.2,4.09.6,1.25.4,2.39.99,3.41,1.79l-2.62,4.33c-.64-.57-1.34-.99-2.12-1.27-.78-.28-1.59-.42-2.46-.42-1.21,0-2.24.22-3.11.66-.87.44-1.54,1.07-2.01,1.91-.47.84-.71,1.84-.71,3.02,0,1.76.52,3.14,1.56,4.13,1.04.99,2.46,1.49,4.26,1.49.97,0,1.88-.18,2.73-.54.85-.36,1.61-.85,2.28-1.49l2.45,4.39c-1.1.82-2.35,1.47-3.76,1.95s-2.82.72-4.25.72Z"/>
    <path class="cls-4" d="M222.88,100.46v-15.43h-6.06v-4.65h17.91v4.65h-6.04v15.43h-5.81Z"/>
    <path class="cls-4" d="M238.46,108.81v-28.43h5.05v2.47c.77-.92,1.75-1.65,2.93-2.22,1.19-.56,2.59-.85,4.23-.85,1.93,0,3.66.45,5.17,1.34,1.51.89,2.7,2.14,3.56,3.75.86,1.6,1.29,3.45,1.29,5.55,0,1.5-.25,2.89-.75,4.18-.5,1.29-1.2,2.41-2.1,3.38s-1.97,1.72-3.2,2.27c-1.23.54-2.59.82-4.08.82-1.31,0-2.5-.22-3.55-.66-1.05-.44-1.98-1.05-2.77-1.85v10.26h-5.79ZM249.6,96.02c1.03,0,1.96-.23,2.77-.69.82-.46,1.45-1.1,1.91-1.94.46-.84.69-1.83.69-2.98s-.23-2.15-.7-2.98c-.46-.84-1.1-1.48-1.91-1.94-.81-.46-1.73-.69-2.76-.69s-1.94.23-2.74.69c-.81.46-1.44,1.1-1.91,1.94-.46.83-.7,1.83-.7,2.98s.23,2.15.69,2.98c.46.83,1.09,1.48,1.9,1.94.81.46,1.73.69,2.76.69Z"/>
    <path class="cls-4" d="M274.13,101.06c-2.16,0-4.08-.48-5.75-1.45s-2.98-2.26-3.93-3.87c-.95-1.61-1.42-3.38-1.42-5.32,0-1.42.27-2.77.82-4.05.54-1.28,1.31-2.41,2.31-3.4.99-.99,2.17-1.77,3.52-2.34,1.35-.57,2.84-.85,4.45-.85,2.16,0,4.07.48,5.74,1.45,1.66.97,2.97,2.26,3.92,3.87.95,1.61,1.42,3.38,1.42,5.32,0,1.41-.27,2.75-.82,4.04-.54,1.29-1.31,2.42-2.3,3.41-.99.99-2.16,1.77-3.51,2.34s-2.84.85-4.45.85ZM274.13,96.02c1.02,0,1.93-.23,2.74-.69.81-.46,1.44-1.11,1.91-1.95.46-.84.7-1.83.7-2.97s-.23-2.15-.69-2.98c-.46-.84-1.09-1.48-1.9-1.94-.81-.46-1.73-.69-2.76-.69s-1.96.23-2.77.69-1.45,1.1-1.91,1.94c-.46.83-.69,1.83-.69,2.98s.23,2.15.7,2.98c.46.83,1.1,1.48,1.91,1.94.81.46,1.73.69,2.76.69Z"/>
    <path class="cls-4" d="M289.2,100.46v-20.08h5.55v11.85l9.4-11.85h5.17v20.08h-5.57v-12.01l-9.42,12.01h-5.13ZM299.24,77.4c-1.59,0-2.98-.31-4.18-.93-1.19-.62-2.12-1.48-2.77-2.59s-.96-2.37-.92-3.82h4.73c-.04,1.06.22,1.91.79,2.55.57.64,1.35.96,2.35.96s1.77-.32,2.34-.96c.56-.64.82-1.49.77-2.55h4.75c.04,1.42-.27,2.68-.93,3.79-.66,1.11-1.59,1.97-2.78,2.6-1.19.63-2.57.94-4.14.94Z"/>
  </g>
  <g>
    <polygon class="cls-3" points="96.98 49.04 96.98 68.99 92.21 68.99 92.18 68.96 92.15 68.99 88.15 68.99 88.15 52.57 48.43 12.86 8.71 52.57 8.71 109.95 17.54 109.95 17.54 118.77 -.11 118.77 -.11 49.04 48.43 .5 96.98 49.04"/>
    <polygon class="cls-1" points="88.15 60.17 88.15 68.99 79.85 68.99 52.85 41.98 26.37 68.46 26.37 126.72 52.85 126.72 52.85 135.54 17.54 135.54 17.54 64.93 52.85 29.63 83.38 60.17 88.15 60.17"/>
  </g>
  <g>
    <rect class="cls-2" x="36.08" y="72.88" width="13.98" height="13.98"/>
    <rect class="cls-2" x="55.64" y="72.88" width="13.98" height="13.98"/>
    <polygon class="cls-2" points="55.64 106.42 50.05 106.42 50.05 92.44 36.08 92.44 36.08 106.42 69.62 106.42 69.62 92.44 55.64 92.44 55.64 106.42"/>
  </g>
</svg>