<?xml version="1.0" encoding="UTF-8"?>
<svg id="Layer_1" data-name="Layer 1" xmlns="http://www.w3.org/2000/svg" xmlns:xlink="http://www.w3.org/1999/xlink" viewBox="0 0 163.26 123.15">
  <defs>
    <style>
      .cls-1 {
        fill: url(#New_Gradient_Swatch_1);
      }

      .cls-1, .cls-2, .cls-3 {
        stroke-width: 0px;
      }

      .cls-2 {
        fill: url(#linear-gradient);
      }

      .cls-3 {
        fill: #fff;
      }
    </style>
    <linearGradient id="linear-gradient" x1="0" y1="53.93" x2="88.54" y2="53.93" gradientUnits="userSpaceOnUse">
      <stop offset="0" stop-color="#8c6239"/>
      <stop offset="1" stop-color="#754c24"/>
    </linearGradient>
    <linearGradient id="New_Gradient_Swatch_1" data-name="New Gradient Swatch 1" x1="16.1" y1="74.86" x2="80.49" y2="74.86" gradientUnits="userSpaceOnUse">
      <stop offset="0" stop-color="#39b54a"/>
      <stop offset="1" stop-color="#009245"/>
    </linearGradient>
  </defs>
  <g>
    <path class="cls-3" d="M39.64,80.06l-6.35-11.76h4.25l4.47,8.78-2.37,2.98ZM35.11,85.17l-1.28-3.19c1.01-.2,1.9-.51,2.67-.93s1.45-.99,2.06-1.71c.6-.72,1.16-1.62,1.69-2.71l3.99-8.33h4.06l-4.91,9.75c-.58,1.18-1.18,2.18-1.79,3.02-.61.84-1.24,1.54-1.9,2.1-.66.56-1.37,1-2.12,1.31-.75.32-1.57.54-2.45.69Z"/>
    <path class="cls-3" d="M49.82,84.86v-11.95h3.45v4.4h5.04v-4.4h3.45v11.95h-3.45v-4.78h-5.04v4.78h-3.45Z"/>
    <path class="cls-3" d="M65.12,84.86v-11.95h3.3v7.05l5.59-7.05h3.08v11.95h-3.31v-7.14l-5.61,7.14h-3.05Z"/>
    <path class="cls-3" d="M80.45,84.86v-11.95h6.08c1.4,0,2.51.25,3.31.76s1.21,1.28,1.21,2.31c0,.54-.14,1-.41,1.38-.27.38-.64.69-1.1.93-.46.24-.98.4-1.57.5l-.05-.77c1.13.12,2.01.46,2.66,1.02.65.56.97,1.29.97,2.19,0,.75-.19,1.39-.57,1.93-.38.54-.93.96-1.66,1.25-.73.29-1.6.44-2.64.44h-6.25ZM83.75,82.47h2.5c.62,0,1.1-.11,1.44-.33.33-.22.5-.53.5-.95s-.16-.71-.49-.92-.81-.32-1.45-.32h-2.84v-2.27h2.54c.59,0,1.05-.09,1.37-.28.32-.18.48-.48.48-.89s-.16-.72-.49-.92c-.33-.2-.78-.3-1.37-.3h-2.2v7.18Z"/>
    <path class="cls-3" d="M99.79,85.22c-1.3,0-2.44-.26-3.43-.79-.99-.53-1.75-1.27-2.31-2.21s-.83-2.05-.83-3.32c0-.92.16-1.77.48-2.54s.77-1.44,1.35-2.01c.58-.56,1.26-1,2.05-1.31.78-.31,1.65-.47,2.58-.47,1.03,0,1.95.18,2.75.54.8.36,1.46.87,1.99,1.52.53.65.9,1.41,1.11,2.29.21.87.23,1.83.05,2.85h-9.15c0,.55.14,1.03.43,1.44.29.41.69.73,1.22.96.52.23,1.14.35,1.84.35s1.36-.09,1.99-.28c.63-.19,1.23-.48,1.79-.86l1.15,2.37c-.38.29-.85.55-1.42.77-.57.22-1.17.4-1.8.52-.63.12-1.24.18-1.83.18ZM96.63,77.39h5.64c-.02-.7-.27-1.26-.74-1.67-.47-.41-1.11-.61-1.93-.61s-1.5.2-2.04.61c-.54.41-.85.97-.93,1.67Z"/>
    <path class="cls-3" d="M108.09,89.83v-16.91h3v1.47c.46-.54,1.04-.98,1.74-1.32.71-.34,1.54-.5,2.51-.5,1.15,0,2.18.27,3.08.8.9.53,1.6,1.28,2.12,2.23.51.95.77,2.05.77,3.3,0,.89-.15,1.72-.44,2.48s-.71,1.44-1.25,2.01-1.17,1.03-1.9,1.35c-.73.32-1.54.48-2.42.48-.78,0-1.48-.13-2.11-.39-.63-.26-1.18-.63-1.65-1.1v6.1h-3.44ZM114.72,82.23c.62,0,1.17-.14,1.65-.41.48-.27.86-.66,1.14-1.15.27-.5.41-1.09.41-1.77s-.14-1.28-.41-1.77c-.28-.5-.65-.88-1.14-1.15-.48-.27-1.03-.41-1.64-.41s-1.15.14-1.63.41c-.48.27-.86.66-1.14,1.15-.28.5-.41,1.09-.41,1.77s.14,1.28.41,1.77c.27.5.65.88,1.13,1.15.48.27,1.03.41,1.64.41Z"/>
    <path class="cls-3" d="M129.3,85.22c-1.26,0-2.39-.28-3.38-.83-.99-.55-1.78-1.31-2.35-2.26s-.86-2.03-.86-3.24c0-.91.17-1.74.51-2.51s.81-1.44,1.43-2.01c.61-.57,1.33-1.02,2.15-1.33.82-.32,1.71-.47,2.66-.47.88,0,1.69.12,2.43.35.75.24,1.42.59,2.03,1.07l-1.56,2.58c-.38-.34-.8-.59-1.26-.76-.46-.17-.95-.25-1.46-.25-.72,0-1.33.13-1.85.39-.52.26-.91.64-1.19,1.14-.28.5-.42,1.1-.42,1.8,0,1.05.31,1.87.93,2.46.62.59,1.46.89,2.54.89.58,0,1.12-.11,1.63-.32s.96-.51,1.35-.89l1.45,2.61c-.65.49-1.4.88-2.24,1.16s-1.68.43-2.53.43Z"/>
    <path class="cls-3" d="M141.19,85.22c-1.14,0-2.16-.27-3.06-.8-.9-.53-1.61-1.28-2.12-2.23-.52-.95-.77-2.05-.77-3.3,0-.94.15-1.79.44-2.57.3-.77.71-1.44,1.25-2.01.54-.56,1.17-1,1.9-1.3.73-.3,1.52-.46,2.37-.46,1.14,0,2.1.24,2.88.73.79.49,1.36,1.13,1.72,1.92l-.49.75v-3.04h3v11.95h-3v-3.04l.49.75c-.36.79-.94,1.43-1.72,1.92-.78.49-1.74.73-2.88.73ZM141.74,82.23c.6,0,1.14-.14,1.61-.41.47-.27.85-.66,1.12-1.15.27-.5.41-1.09.41-1.77s-.14-1.28-.41-1.77c-.27-.5-.64-.88-1.12-1.15-.47-.27-1.01-.41-1.61-.41s-1.12.14-1.6.41c-.47.27-.85.66-1.12,1.15-.27.5-.41,1.09-.41,1.77s.14,1.28.41,1.77c.27.5.64.88,1.12,1.15.47.27,1.01.41,1.6.41Z"/>
    <path class="cls-3" d="M151.52,85.12l-1.15-3.06c.81-.2,1.4-.51,1.77-.92.37-.41.61-.97.7-1.67.1-.71.15-1.61.15-2.7v-3.84h10.25v11.95h-3.45v-9.18h-3.64v1.08c0,1.23-.07,2.32-.21,3.26s-.38,1.76-.72,2.44-.81,1.24-1.41,1.67c-.6.43-1.37.76-2.31.98Z"/>
    <path class="cls-3" d="M34.53,106.68v-16.56h6.42c1.21,0,2.29.21,3.23.63.94.42,1.68,1.03,2.21,1.83.54.8.8,1.76.8,2.88s-.25,2.11-.74,2.9-1.22,1.4-2.16,1.81c-.94.41-2.08.62-3.42.62h-2.84v5.88h-3.5ZM38.03,97.85h2.78c.91,0,1.61-.18,2.12-.56.51-.37.76-.96.76-1.76s-.26-1.42-.78-1.81-1.21-.59-2.08-.59h-2.8v4.72Z"/>
    <path class="cls-3" d="M55.13,107.03c-1.3,0-2.44-.26-3.43-.79-.99-.53-1.75-1.27-2.31-2.21s-.83-2.05-.83-3.32c0-.92.16-1.77.48-2.54s.77-1.44,1.35-2.01c.58-.56,1.26-1,2.05-1.31.78-.31,1.65-.47,2.58-.47,1.03,0,1.95.18,2.75.54.8.36,1.46.87,1.99,1.52.53.65.9,1.41,1.11,2.29.21.87.23,1.83.05,2.85h-9.15c0,.55.14,1.03.43,1.44.29.41.69.73,1.22.96.52.23,1.14.35,1.84.35s1.36-.09,1.99-.28c.63-.19,1.23-.48,1.79-.86l1.15,2.37c-.38.29-.85.55-1.42.77-.57.22-1.17.4-1.8.52-.63.12-1.24.18-1.83.18ZM51.97,99.2h5.64c-.02-.7-.27-1.26-.74-1.67-.47-.41-1.11-.61-1.93-.61s-1.5.2-2.04.61c-.54.41-.85.97-.93,1.67Z"/>
    <path class="cls-3" d="M63.43,106.68v-11.95h3.02l5.02,7.5-1.48.02,4.73-7.52h3.02v11.95h-3.05l.04-8.1.67.27-3.76,5.69h-2.08l-3.97-5.7.65-.26.06,8.1h-2.85Z"/>
    <path class="cls-3" d="M86.7,107.03c-1.26,0-2.39-.28-3.38-.83-.99-.55-1.78-1.31-2.35-2.26-.57-.95-.86-2.03-.86-3.24,0-.91.17-1.74.51-2.51s.81-1.44,1.43-2.01c.61-.57,1.33-1.02,2.15-1.33.82-.32,1.71-.47,2.66-.47.88,0,1.69.12,2.43.35.75.24,1.42.59,2.03,1.07l-1.56,2.58c-.38-.34-.8-.59-1.26-.76-.46-.17-.95-.25-1.46-.25-.72,0-1.33.13-1.85.39-.52.26-.91.64-1.19,1.14-.28.5-.42,1.1-.42,1.8,0,1.05.31,1.87.93,2.46.62.59,1.46.89,2.54.89.58,0,1.12-.11,1.63-.32s.96-.51,1.35-.89l1.45,2.61c-.65.49-1.4.88-2.24,1.16s-1.68.43-2.53.43Z"/>
    <path class="cls-3" d="M96.08,106.68v-9.18h-3.61v-2.77h10.66v2.77h-3.6v9.18h-3.45Z"/>
    <path class="cls-3" d="M105.35,111.64v-16.91h3v1.47c.46-.54,1.04-.98,1.74-1.32.71-.34,1.54-.5,2.51-.5,1.15,0,2.18.27,3.08.8.9.53,1.6,1.28,2.12,2.23.51.95.77,2.05.77,3.3,0,.89-.15,1.72-.44,2.48s-.71,1.44-1.25,2.01-1.17,1.03-1.9,1.35c-.73.32-1.54.48-2.42.48-.78,0-1.48-.13-2.11-.39-.63-.26-1.18-.63-1.65-1.1v6.1h-3.44ZM111.97,104.04c.62,0,1.17-.14,1.65-.41.48-.27.86-.66,1.14-1.15.27-.5.41-1.09.41-1.77s-.14-1.28-.41-1.77c-.28-.5-.65-.88-1.14-1.15-.48-.27-1.03-.41-1.64-.41s-1.15.14-1.63.41c-.48.27-.86.66-1.14,1.15-.28.5-.41,1.09-.41,1.77s.14,1.28.41,1.77c.27.5.65.88,1.13,1.15.48.27,1.03.41,1.64.41Z"/>
    <path class="cls-3" d="M126.57,107.03c-1.29,0-2.42-.29-3.42-.86s-1.77-1.34-2.34-2.3c-.56-.96-.85-2.01-.85-3.16,0-.84.16-1.65.48-2.41.32-.76.78-1.44,1.37-2.02.59-.59,1.29-1.05,2.09-1.39.8-.34,1.69-.51,2.65-.51,1.29,0,2.42.29,3.41.86.99.58,1.77,1.34,2.33,2.3.56.96.85,2.01.85,3.16,0,.84-.16,1.64-.48,2.4-.32.77-.78,1.44-1.37,2.03-.59.59-1.28,1.05-2.09,1.39s-1.69.51-2.65.51ZM126.57,104.04c.61,0,1.15-.14,1.63-.41.48-.27.86-.66,1.14-1.16.28-.5.41-1.09.41-1.77s-.14-1.28-.41-1.77c-.27-.5-.65-.88-1.13-1.15-.48-.27-1.03-.41-1.64-.41s-1.17.14-1.65.41-.86.66-1.14,1.15c-.27.5-.41,1.09-.41,1.77s.14,1.28.41,1.77c.28.5.65.88,1.14,1.15.48.27,1.03.41,1.64.41Z"/>
    <path class="cls-3" d="M135.53,106.68v-11.95h3.3v7.05l5.59-7.05h3.08v11.95h-3.31v-7.14l-5.61,7.14h-3.05ZM141.51,92.96c-.95,0-1.77-.18-2.48-.56-.71-.37-1.26-.88-1.65-1.54s-.57-1.41-.55-2.27h2.82c-.02.63.13,1.14.47,1.52.34.38.8.57,1.4.57s1.05-.19,1.39-.57c.33-.38.49-.89.46-1.52h2.83c.02.84-.16,1.59-.56,2.25-.39.66-.95,1.17-1.66,1.55-.71.37-1.53.56-2.46.56Z"/>
  </g>
  <polygon class="cls-2" points="88.54 44.27 88.54 62.46 84.19 62.46 84.17 62.44 84.14 62.46 80.49 62.46 80.49 47.49 44.27 11.27 8.05 47.49 8.05 99.81 16.1 99.81 16.1 107.86 0 107.86 0 44.27 44.27 0 88.54 44.27"/>
  <polygon class="cls-1" points="80.49 54.41 80.49 62.46 72.92 62.46 48.29 37.83 24.15 61.98 24.15 115.1 48.29 115.1 48.29 123.15 16.1 123.15 16.1 58.76 48.29 26.56 76.14 54.41 80.49 54.41"/>
</svg>