<?xml version="1.0" encoding="UTF-8"?>
<svg id="Layer_1" data-name="Layer 1" xmlns="http://www.w3.org/2000/svg" xmlns:xlink="http://www.w3.org/1999/xlink" viewBox="0 0 1174.5 300">
  <defs>
    <style>
      .cls-1 {
        fill: url(#New_Gradient_Swatch_1);
      }

      .cls-1, .cls-2, .cls-3 {
        stroke-width: 0px;
      }

      .cls-2 {
        fill: url(#linear-gradient);
      }

      .cls-3 {
        fill: #fff;
      }
    </style>
    <linearGradient id="linear-gradient" x1="0" y1="131.37" x2="215.69" y2="131.37" gradientUnits="userSpaceOnUse">
      <stop offset="0" stop-color="#8c6239"/>
      <stop offset="1" stop-color="#754c24"/>
    </linearGradient>
    <linearGradient id="New_Gradient_Swatch_1" data-name="New Gradient Swatch 1" x1="39.22" y1="182.35" x2="196.08" y2="182.35" gradientUnits="userSpaceOnUse">
      <stop offset="0" stop-color="#39b54a"/>
      <stop offset="1" stop-color="#009245"/>
    </linearGradient>
  </defs>
  <g>
    <path class="cls-3" d="M353.16,89.88l-41.53-76.88h27.76l29.23,57.39-15.47,19.49ZM323.54,123.29l-8.35-20.88c6.6-1.29,12.41-3.31,17.44-6.07s9.51-6.49,13.46-11.18c3.94-4.69,7.62-10.6,11.02-17.71l26.06-54.45h26.53l-32.1,63.73c-3.82,7.69-7.71,14.27-11.68,19.76-3.97,5.49-8.12,10.07-12.45,13.72-4.33,3.66-8.96,6.53-13.88,8.59-4.93,2.06-10.27,3.56-16.05,4.49Z"/>
    <path class="cls-3" d="M419.75,121.28V43.16h22.59v28.77h32.94v-28.77h22.59v78.11h-22.59v-31.25h-32.94v31.25h-22.59Z"/>
    <path class="cls-3" d="M519.82,121.28V43.16h21.58v46.1l36.58-46.1h20.11v78.11h-21.66v-46.71l-36.66,46.71h-19.95Z"/>
    <path class="cls-3" d="M620.05,121.28V43.16h39.75c9.18,0,16.4,1.66,21.65,4.99,5.26,3.33,7.89,8.37,7.89,15.12,0,3.5-.89,6.51-2.67,9.01-1.78,2.5-4.18,4.53-7.19,6.07-3.02,1.55-6.43,2.63-10.25,3.25l-.31-5.03c7.37.77,13.17,3.01,17.4,6.69,4.23,3.69,6.34,8.47,6.34,14.35,0,4.9-1.24,9.11-3.71,12.64-2.47,3.53-6.09,6.25-10.83,8.16-4.74,1.91-10.49,2.86-17.25,2.86h-40.84ZM641.63,105.66h16.32c4.07,0,7.2-.71,9.4-2.13,2.19-1.41,3.29-3.49,3.29-6.22s-1.07-4.64-3.21-6.03c-2.14-1.39-5.3-2.09-9.47-2.09h-18.56v-14.85h16.63c3.87,0,6.86-.6,8.97-1.82,2.12-1.21,3.17-3.16,3.17-5.84s-1.07-4.68-3.21-5.99c-2.14-1.31-5.12-1.97-8.93-1.97h-14.38v46.95Z"/>
    <path class="cls-3" d="M746.5,123.6c-8.51,0-15.98-1.73-22.43-5.18-6.45-3.45-11.47-8.27-15.08-14.46-3.61-6.19-5.41-13.43-5.41-21.73,0-6.03,1.05-11.57,3.13-16.63,2.09-5.05,5.03-9.42,8.82-13.11,3.79-3.68,8.25-6.55,13.38-8.58,5.13-2.04,10.76-3.06,16.9-3.06,6.75,0,12.75,1.19,17.98,3.56,5.23,2.37,9.58,5.68,13.03,9.94,3.45,4.26,5.86,9.24,7.23,14.97,1.37,5.72,1.48,11.94.35,18.64h-59.86c0,3.61.94,6.76,2.82,9.43,1.88,2.68,4.54,4.78,7.97,6.3,3.43,1.52,7.43,2.28,12.02,2.28s8.87-.62,13-1.86c4.12-1.24,8.01-3.12,11.68-5.65l7.5,15.47c-2.48,1.91-5.57,3.59-9.28,5.07-3.71,1.47-7.64,2.6-11.8,3.4-4.15.8-8.13,1.2-11.95,1.2ZM725.85,72.4h36.89c-.15-4.59-1.77-8.22-4.83-10.91-3.07-2.68-7.28-4.02-12.65-4.02s-9.81,1.34-13.34,4.02c-3.53,2.68-5.56,6.32-6.07,10.91Z"/>
    <path class="cls-3" d="M800.8,153.76V43.16h19.65v9.59c2.99-3.56,6.79-6.43,11.41-8.62,4.61-2.2,10.09-3.29,16.43-3.29,7.53,0,14.23,1.74,20.11,5.22,5.88,3.48,10.49,8.34,13.84,14.58,3.35,6.24,5.03,13.43,5.03,21.57,0,5.83-.97,11.24-2.9,16.24-1.93,5-4.65,9.38-8.16,13.15-3.51,3.76-7.66,6.71-12.45,8.82-4.79,2.12-10.08,3.17-15.85,3.17-5.1,0-9.71-.85-13.81-2.55-4.1-1.7-7.7-4.1-10.79-7.19v39.9h-22.51ZM844.11,104.03c4.02,0,7.62-.89,10.79-2.67,3.17-1.78,5.65-4.29,7.42-7.54,1.78-3.25,2.67-7.12,2.67-11.6s-.9-8.35-2.71-11.6c-1.8-3.25-4.28-5.76-7.42-7.54-3.15-1.78-6.73-2.67-10.75-2.67s-7.53.89-10.67,2.67c-3.15,1.78-5.62,4.29-7.42,7.54-1.8,3.25-2.71,7.11-2.71,11.6s.89,8.35,2.67,11.6c1.78,3.25,4.24,5.76,7.39,7.54,3.14,1.78,6.73,2.67,10.75,2.67Z"/>
    <path class="cls-3" d="M939.46,123.6c-8.25,0-15.62-1.81-22.12-5.41-6.5-3.61-11.61-8.54-15.35-14.77-3.74-6.24-5.61-13.3-5.61-21.19,0-5.93,1.11-11.4,3.33-16.43,2.22-5.03,5.32-9.41,9.32-13.15,3.99-3.74,8.67-6.64,14.04-8.7,5.36-2.06,11.16-3.1,17.4-3.1,5.72,0,11.02.78,15.89,2.32,4.87,1.55,9.29,3.87,13.26,6.96l-10.21,16.86c-2.47-2.22-5.22-3.87-8.24-4.95-3.02-1.08-6.2-1.62-9.55-1.62-4.69,0-8.73.85-12.1,2.55-3.38,1.7-5.98,4.18-7.81,7.42-1.83,3.25-2.75,7.17-2.75,11.76,0,6.85,2.02,12.22,6.07,16.08,4.05,3.87,9.58,5.8,16.59,5.8,3.76,0,7.31-.69,10.63-2.09s6.28-3.33,8.86-5.8l9.51,17.09c-4.28,3.2-9.15,5.72-14.62,7.58-5.47,1.86-10.98,2.78-16.55,2.78Z"/>
    <path class="cls-3" d="M1017.19,123.6c-7.48,0-14.15-1.74-20.03-5.22-5.88-3.48-10.51-8.34-13.88-14.58-3.38-6.24-5.07-13.43-5.07-21.58,0-6.13.97-11.73,2.9-16.78,1.93-5.05,4.65-9.42,8.16-13.11,3.5-3.68,7.64-6.52,12.41-8.51,4.77-1.98,9.94-2.98,15.51-2.98,7.42,0,13.7,1.6,18.83,4.79,5.14,3.2,8.88,7.38,11.26,12.53l-3.18,4.87v-19.88h19.64v78.11h-19.64v-19.88l3.18,4.87c-2.38,5.16-6.12,9.33-11.26,12.53-5.13,3.2-11.4,4.79-18.83,4.79ZM1020.82,104.03c3.92,0,7.42-.89,10.52-2.67,3.1-1.78,5.54-4.29,7.31-7.54,1.78-3.25,2.67-7.12,2.67-11.6s-.89-8.35-2.67-11.6c-1.77-3.25-4.21-5.76-7.31-7.54-3.09-1.78-6.6-2.67-10.52-2.67s-7.35.89-10.44,2.67c-3.09,1.78-5.53,4.29-7.31,7.54-1.78,3.25-2.67,7.11-2.67,11.6s.89,8.35,2.67,11.6c1.78,3.25,4.22,5.76,7.31,7.54,3.09,1.78,6.58,2.67,10.44,2.67Z"/>
    <path class="cls-3" d="M1084.78,122.98l-7.5-20.03c5.31-1.34,9.17-3.35,11.6-6.03,2.42-2.68,3.96-6.33,4.6-10.94.64-4.61.97-10.51.97-17.67v-25.14h67.05v78.11h-22.59v-60.01h-23.82v7.04c0,8.04-.45,15.16-1.35,21.35-.9,6.19-2.46,11.51-4.68,15.97-2.22,4.46-5.29,8.11-9.2,10.94-3.92,2.84-8.95,4.98-15.08,6.42Z"/>
    <path class="cls-3" d="M319.74,263.9v-108.28h42c7.94,0,14.98,1.38,21.11,4.14,6.14,2.76,10.95,6.76,14.46,11.99,3.51,5.24,5.26,11.51,5.26,18.84s-1.62,13.8-4.87,18.99c-3.25,5.18-7.95,9.12-14.12,11.83-6.16,2.71-13.62,4.06-22.39,4.06h-18.56v38.44h-22.89ZM342.64,206.21h18.17c5.93,0,10.56-1.21,13.88-3.63,3.33-2.42,4.99-6.27,4.99-11.52s-1.7-9.25-5.1-11.83c-3.4-2.58-7.94-3.87-13.61-3.87h-18.33v30.86Z"/>
    <path class="cls-3" d="M454.47,266.22c-8.51,0-15.98-1.73-22.43-5.18-6.45-3.45-11.47-8.27-15.08-14.46-3.61-6.19-5.41-13.43-5.41-21.73,0-6.03,1.05-11.57,3.13-16.63,2.09-5.05,5.03-9.42,8.82-13.11,3.79-3.68,8.25-6.55,13.38-8.58,5.13-2.04,10.76-3.06,16.9-3.06,6.75,0,12.75,1.19,17.98,3.56,5.23,2.37,9.58,5.68,13.03,9.94,3.45,4.26,5.86,9.24,7.23,14.97,1.37,5.72,1.48,11.94.35,18.64h-59.86c0,3.61.94,6.76,2.82,9.43,1.88,2.68,4.54,4.78,7.97,6.3,3.43,1.52,7.43,2.28,12.02,2.28s8.87-.62,13-1.86c4.12-1.24,8.01-3.12,11.68-5.65l7.5,15.47c-2.48,1.91-5.57,3.59-9.28,5.07-3.71,1.47-7.64,2.6-11.8,3.4-4.15.8-8.13,1.2-11.95,1.2ZM433.82,215.02h36.89c-.15-4.59-1.77-8.22-4.83-10.91-3.07-2.68-7.28-4.02-12.65-4.02s-9.81,1.34-13.34,4.02c-3.53,2.68-5.56,6.32-6.07,10.91Z"/>
    <path class="cls-3" d="M508.76,263.9v-78.11h19.72l32.79,49.03-9.67.15,30.94-49.19h19.72v78.11h-19.95l.23-52.98,4.41,1.78-24.59,37.2h-13.61l-25.99-37.28,4.25-1.7.39,52.98h-18.64Z"/>
    <path class="cls-3" d="M660.89,266.22c-8.25,0-15.62-1.81-22.12-5.41-6.5-3.61-11.61-8.54-15.35-14.77-3.74-6.24-5.61-13.3-5.61-21.19,0-5.93,1.11-11.4,3.33-16.43,2.22-5.03,5.32-9.41,9.32-13.15,3.99-3.74,8.67-6.64,14.04-8.7,5.36-2.06,11.16-3.1,17.4-3.1,5.72,0,11.02.78,15.89,2.32,4.87,1.55,9.29,3.87,13.26,6.96l-10.21,16.86c-2.47-2.22-5.22-3.87-8.24-4.95-3.02-1.08-6.2-1.62-9.55-1.62-4.69,0-8.73.85-12.1,2.55-3.38,1.7-5.98,4.18-7.81,7.42-1.83,3.25-2.75,7.17-2.75,11.76,0,6.85,2.02,12.22,6.07,16.08,4.05,3.87,9.58,5.8,16.59,5.8,3.76,0,7.31-.69,10.63-2.09,3.33-1.39,6.28-3.33,8.86-5.8l9.51,17.09c-4.28,3.2-9.15,5.72-14.62,7.58-5.47,1.86-10.98,2.78-16.55,2.78Z"/>
    <path class="cls-3" d="M722.21,263.9v-60.01h-23.59v-18.1h69.68v18.1h-23.51v60.01h-22.59Z"/>
    <path class="cls-3" d="M782.85,296.38v-110.6h19.65v9.59c2.99-3.56,6.79-6.43,11.41-8.62,4.61-2.2,10.09-3.29,16.43-3.29,7.53,0,14.23,1.74,20.11,5.22,5.88,3.48,10.49,8.34,13.84,14.58,3.35,6.24,5.03,13.43,5.03,21.57,0,5.83-.97,11.24-2.9,16.24-1.93,5-4.65,9.38-8.16,13.15-3.51,3.76-7.66,6.71-12.45,8.82-4.79,2.12-10.08,3.17-15.85,3.17-5.1,0-9.71-.85-13.81-2.55-4.1-1.7-7.7-4.1-10.79-7.19v39.9h-22.51ZM826.16,246.65c4.02,0,7.62-.89,10.79-2.67,3.17-1.78,5.65-4.29,7.42-7.54,1.78-3.25,2.67-7.12,2.67-11.6s-.9-8.35-2.71-11.6c-1.8-3.25-4.28-5.76-7.42-7.54-3.15-1.78-6.73-2.67-10.75-2.67s-7.53.89-10.67,2.67c-3.15,1.78-5.62,4.29-7.42,7.54-1.8,3.25-2.71,7.11-2.71,11.6s.89,8.35,2.67,11.6c1.78,3.25,4.24,5.76,7.39,7.54,3.14,1.78,6.73,2.67,10.75,2.67Z"/>
    <path class="cls-3" d="M921.6,266.22c-8.41,0-15.85-1.88-22.35-5.65-6.5-3.76-11.59-8.78-15.28-15.04-3.69-6.26-5.53-13.16-5.53-20.69,0-5.52,1.06-10.76,3.17-15.74,2.11-4.98,5.1-9.38,8.97-13.23,3.87-3.84,8.43-6.87,13.69-9.09,5.26-2.22,11.03-3.33,17.32-3.33,8.4,0,15.84,1.88,22.31,5.65,6.47,3.77,11.55,8.78,15.24,15.04,3.68,6.27,5.53,13.16,5.53,20.69,0,5.47-1.06,10.7-3.17,15.7-2.11,5-5.09,9.42-8.93,13.27-3.84,3.84-8.39,6.87-13.65,9.08-5.26,2.22-11.03,3.33-17.32,3.33ZM921.6,246.65c3.97,0,7.53-.89,10.67-2.67,3.14-1.78,5.62-4.3,7.42-7.58,1.8-3.28,2.71-7.13,2.71-11.56s-.89-8.35-2.67-11.6c-1.78-3.25-4.24-5.76-7.38-7.54-3.15-1.78-6.73-2.67-10.75-2.67s-7.62.89-10.79,2.67c-3.17,1.78-5.65,4.29-7.42,7.54-1.78,3.25-2.67,7.11-2.67,11.6s.9,8.35,2.71,11.6c1.8,3.25,4.28,5.76,7.42,7.54,3.14,1.78,6.73,2.67,10.75,2.67Z"/>
    <path class="cls-3" d="M980.22,263.9v-78.11h21.58v46.1l36.58-46.1h20.11v78.11h-21.65v-46.71l-36.66,46.71h-19.95ZM1019.27,174.19c-6.19,0-11.6-1.21-16.24-3.63-4.64-2.42-8.24-5.77-10.79-10.06-2.55-4.28-3.75-9.23-3.6-14.85h18.41c-.16,4.13.87,7.44,3.09,9.94,2.22,2.5,5.26,3.75,9.13,3.75s6.89-1.25,9.09-3.75c2.19-2.5,3.18-5.81,2.98-9.94h18.48c.15,5.52-1.06,10.43-3.63,14.73-2.58,4.31-6.19,7.68-10.83,10.13-4.64,2.45-10.01,3.67-16.09,3.67Z"/>
  </g>
  <g>
    <polygon class="cls-2" points="215.69 107.84 215.69 152.16 205.1 152.16 205.04 152.09 204.97 152.16 196.08 152.16 196.08 115.69 107.84 27.45 19.61 115.69 19.61 243.14 39.22 243.14 39.22 262.75 0 262.75 0 107.84 107.84 0 215.69 107.84"/>
    <polygon class="cls-1" points="196.08 132.55 196.08 152.16 177.65 152.16 117.65 92.16 58.82 150.98 58.82 280.39 117.65 280.39 117.65 300 39.22 300 39.22 143.14 117.65 64.71 185.49 132.55 196.08 132.55"/>
  </g>
  <g>
    <rect class="cls-3" x="80.39" y="160.78" width="31.05" height="31.05"/>
    <rect class="cls-3" x="123.86" y="160.78" width="31.05" height="31.05"/>
    <polygon class="cls-3" points="123.86 235.29 111.44 235.29 111.44 204.25 80.39 204.25 80.39 235.29 154.9 235.29 154.9 204.25 123.86 204.25 123.86 235.29"/>
  </g>
</svg>